<svg xmlns="http://www.w3.org/2000/svg" width="70" height="70" viewBox="0 0 70 70">
    <g fill="#4D4D4D" fill-rule="nonzero">
        <path d="M69.726 42.927l-3.07-7.991 3.066-7.995c.34-.882.07-1.886-.664-2.48l-6.65-5.389-1.345-8.457a2.188 2.188 0 0 0-1.812-1.812l-8.458-1.345-5.388-6.65a2.19 2.19 0 0 0-2.48-.664l-7.991 3.07L26.939.147a2.171 2.171 0 0 0-2.476.664l-5.388 6.65-8.458 1.345a2.188 2.188 0 0 0-1.812 1.812L7.46 19.077.81 24.465c-.734.594-1 1.594-.664 2.476l3.065 7.995L.146 42.93a2.184 2.184 0 0 0 .664 2.476l6.65 5.388 1.345 8.458c.148.93.882 1.663 1.812 1.812l8.458 1.345 5.388 6.65a2.173 2.173 0 0 0 2.48.664l7.99-3.066 7.996 3.066a2.186 2.186 0 0 0 2.48-.664l5.388-6.65 8.458-1.345a2.188 2.188 0 0 0 1.812-1.812l1.345-8.458 6.65-5.388a2.19 2.19 0 0 0 .664-2.48zm-7.454-7.21l2.8 7.292-6.075 4.917c-.419.34-.698.821-.781 1.354l-1.227 7.715-7.716 1.227a2.176 2.176 0 0 0-1.353.782l-4.908 6.074-7.292-2.8a2.317 2.317 0 0 0-.786-.143c-.267 0-.533.048-.782.144l-7.292 2.799-4.916-6.074c-.341-.42-.821-.699-1.354-.782l-7.716-1.227-1.227-7.715a2.176 2.176 0 0 0-.781-1.354l-6.074-4.912 2.799-7.292a2.18 2.18 0 0 0-.004-1.568l-2.795-7.296 6.074-4.917c.419-.34.698-.82.781-1.353l1.227-7.716 7.716-1.227a2.176 2.176 0 0 0 1.354-.781l4.912-6.07 7.292 2.799a2.192 2.192 0 0 0 1.563 0l7.292-2.799 4.917 6.074c.34.42.82.699 1.353.781l7.716 1.227 1.227 7.716c.083.533.362 1.013.781 1.354l6.074 4.916-2.799 7.292a2.192 2.192 0 0 0 0 1.563z"/>
        <path d="M28.384 17.47a6.558 6.558 0 0 0-6.55 6.55 6.558 6.558 0 0 0 6.55 6.55 6.558 6.558 0 0 0 6.55-6.55 6.558 6.558 0 0 0-6.55-6.55zm0 8.733a2.184 2.184 0 1 1 .002-4.368 2.184 2.184 0 0 1-.002 4.368zM41.484 39.302a6.558 6.558 0 0 0-6.55 6.55 6.558 6.558 0 0 0 6.55 6.55 6.558 6.558 0 0 0 6.55-6.55 6.558 6.558 0 0 0-6.55-6.55zm0 8.733a2.184 2.184 0 1 1 .001-4.368 2.184 2.184 0 0 1-.001 4.368zM47.12 17.88a2.185 2.185 0 0 0-3.043.507L22.245 48.952a2.18 2.18 0 1 0 3.55 2.537l21.832-30.565a2.18 2.18 0 0 0-.506-3.044z"/>
    </g>
</svg>
